<?xml version="1.0" encoding="UTF-8"?>
<svg id="Camada_1" xmlns="http://www.w3.org/2000/svg" version="1.1" viewBox="0 0 255.12 72.28">
  <!-- Generator: Adobe Illustrator 30.2.1, SVG Export Plug-In . SVG Version: 2.1.1 Build 1)  -->
  <path d="M150.14,21.47v16.46c0,1.62-.18,2.82-.56,3.6-.32.62-.84,1.14-1.52,1.53-.69.4-1.41.6-2.17.6s-1.48-.2-2.17-.61-1.2-.92-1.53-1.52c-.38-.77-.56-1.96-.56-3.6v-16.46c-2.14.02-3.57-.41-4.31-1.28-.66-.77-.99-1.63-.99-2.58,0-1.15.43-2.12,1.27-2.89.7-.66,2.05-.99,4.03-.99v-4.39c0-1.61.18-2.8.56-3.56.32-.63.83-1.15,1.51-1.54.68-.4,1.41-.59,2.19-.59s1.48.19,2.17.59c.69.4,1.2.91,1.52,1.54.38.76.56,1.94.56,3.56v4.39h1.59c1.46,0,2.54.17,3.23.52.57.28,1.03.74,1.39,1.36s.54,1.28.54,1.98-.18,1.37-.54,2.01c-.36.63-.82,1.09-1.39,1.37-.7.34-1.78.51-3.23.51h-1.59ZM124.48,16.37c1.12-1.12,2.03-1.88,2.73-2.3,1.06-.62,2.12-.93,3.18-.93,1.23,0,2.28.47,3.16,1.39.8.84,1.19,1.86,1.19,3.05,0,1.04-.34,1.85-1.02,2.42-.55.47-1.66.97-3.33,1.51-2.02.64-3.54,1.36-4.55,2.16-.56.46-.93.94-1.11,1.46-.17.4-.25,1.09-.25,2.07v10.76c0,1.61-.18,2.82-.56,3.59-.32.62-.84,1.14-1.53,1.53-.69.4-1.41.6-2.17.6s-1.48-.2-2.17-.6-1.2-.91-1.52-1.53c-.38-.76-.56-1.96-.56-3.59v-19.73c0-1.51.35-2.65,1.05-3.45.85-.97,1.92-1.46,3.21-1.46,1.91,0,3.33,1.02,4.25,3.06h0ZM95.47,21.12c-1.72,0-3.13.68-4.23,2.05-1.06,1.37-1.59,3.14-1.59,5.32s.53,3.92,1.59,5.29c1.1,1.39,2.55,2.08,4.34,2.08,1.56,0,2.9-.62,4.02-1.86,1.25-1.38,1.87-3.23,1.87-5.55s-.6-4.19-1.82-5.5c-1.14-1.23-2.54-1.85-4.2-1.85l.02.02ZM101.71,40.27c-.96,1.18-1.82,2-2.55,2.46-1.23.75-2.74,1.12-4.52,1.12-3.17,0-5.98-1.09-8.44-3.27-3.37-2.98-5.06-7.06-5.06-12.23,0-4.59,1.49-8.37,4.46-11.34,2.62-2.58,5.6-3.88,8.96-3.88,1.87,0,3.52.44,4.92,1.31.61.41,1.39,1.09,2.33,2.06.48-1.12,1.01-1.9,1.59-2.34.78-.57,1.66-.85,2.65-.85,1.1,0,2.07.4,2.92,1.19.87.84,1.31,1.9,1.31,3.2v20.92c0,1.58-.44,2.84-1.31,3.77-.8.85-1.79,1.28-2.98,1.28-1.99,0-3.42-1.14-4.27-3.4h0ZM41.88,16.11c1.01-.89,1.93-1.54,2.76-1.94,1.43-.69,3.03-1.03,4.81-1.03,2.21,0,4.16.48,5.83,1.43.74.42,1.53,1.19,2.36,2.31,1.43-1.16,2.64-2,3.65-2.52,1.67-.82,3.47-1.22,5.39-1.22,2.96,0,5.41.94,7.35,2.83,1.95,1.91,2.93,4.27,2.93,7.06v14.92c0,1.63-.18,2.84-.56,3.59-.32.6-.84,1.12-1.53,1.52-.69.41-1.41.61-2.17.61s-1.48-.2-2.17-.6-1.2-.91-1.53-1.53c-.38-.76-.56-1.96-.56-3.59v-13.01c0-1.26-.38-2.29-1.15-3.08-.86-.92-1.95-1.38-3.27-1.38s-2.45.45-3.35,1.35c-.81.79-1.2,1.83-1.2,3.11v13.01c0,1.61-.18,2.82-.56,3.59-.32.62-.84,1.14-1.53,1.53-.69.4-1.41.6-2.17.6s-1.48-.2-2.17-.6c-.69-.4-1.2-.91-1.52-1.53-.38-.76-.56-1.96-.56-3.59v-12.15c0-1.75-.41-3.07-1.22-3.96-.82-.9-1.89-1.35-3.22-1.35s-2.43.47-3.34,1.41c-.76.81-1.14,1.82-1.14,3.05v13.01c0,1.61-.18,2.82-.56,3.59-.32.62-.84,1.14-1.53,1.53-.69.4-1.41.6-2.17.6s-1.48-.2-2.17-.6c-.69-.4-1.2-.91-1.52-1.53-.38-.76-.56-1.96-.56-3.59v-19.7c0-1.45.36-2.6,1.08-3.48.8-.97,1.84-1.46,3.12-1.46,1.1,0,2.03.37,2.81,1.12.36.32.81.88,1.33,1.68h0ZM15.58,3.46c3.03,0,5.69.61,7.98,1.85,1.71.93,2.56,2.23,2.56,3.9,0,1.21-.45,2.24-1.33,3.1-.7.67-1.57,1-2.61,1-.57,0-1.05-.07-1.45-.2l-1.62-.59c-1.36-.48-2.69-.72-3.97-.72-1.44,0-2.61.38-3.53,1.14-.62.53-.93,1.21-.93,2.05,0,.95.4,1.7,1.19,2.25.7.48,1.52.84,2.44,1.08l2.36.63c3.81,1.02,6.69,2.36,8.66,4.01,2.35,1.95,3.53,4.71,3.53,8.26s-1.1,6.53-3.3,8.92c-2.56,2.75-6.4,4.13-11.53,4.13-3.79,0-7.08-.68-9.87-2.03-2.22-1.1-3.33-2.62-3.33-4.56,0-1.19.4-2.21,1.19-3.09.74-.78,1.62-1.17,2.64-1.17.76,0,1.52.15,2.27.43l3.07,1.17c1.5.57,2.97.85,4.44.85s2.75-.4,3.63-1.19c.82-.76,1.22-1.73,1.22-2.9s-.51-2.13-1.51-2.76c-.87-.56-2.93-1.34-6.2-2.3-2.65-.8-4.53-1.5-5.62-2.11-3.23-1.78-4.86-4.64-4.86-8.59s1.54-7.22,4.63-9.54c2.68-2.01,5.94-3.01,9.82-3.01h.03Z" fill="#693b9e"/>
  <path d="M160.06,50.34v-18.87c0-1.61.18-2.81.56-3.59.32-.62.82-1.13,1.5-1.53s1.41-.6,2.18-.6,1.48.2,2.18.6,1.19.91,1.5,1.53c.38.76.56,1.96.56,3.59v18.87c0,1.63-.18,2.83-.56,3.59-.31.6-.8,1.11-1.5,1.52s-1.42.61-2.18.61-1.47-.2-2.16-.6-1.2-.91-1.52-1.53c-.38-.76-.56-1.96-.56-3.59M164.48,13.01c1.42,0,2.62.55,3.61,1.65.85.95,1.28,2.06,1.28,3.33,0,1.47-.55,2.7-1.65,3.69-.95.85-2.06,1.28-3.33,1.28-1.47,0-2.7-.55-3.69-1.65-.85-.95-1.28-2.07-1.28-3.38,0-1.42.55-2.64,1.65-3.64.93-.85,2.07-1.28,3.41-1.28ZM141.64,48.99c0-2.44,1.98-4.42,4.42-4.42s4.42,1.98,4.42,4.42c0,3.85,1.56,7.33,4.08,9.85s6,4.08,9.85,4.08,7.29-1.53,9.81-4.02,4.1-5.93,4.14-9.74c.03-2.43,2.02-4.38,4.45-4.35s4.38,2.02,4.35,4.45c-.08,6.23-2.65,11.85-6.77,15.91-4.11,4.06-9.76,6.57-15.98,6.57s-11.98-2.55-16.1-6.67c-4.12-4.12-6.67-9.81-6.67-16.1v.02Z" fill="#f47f16"/>
  <path d="M128.6,60.49c0,.39.07.77.21,1.13s.34.65.62.88c.27.23.61.34.99.34s.7-.11.97-.34.47-.52.61-.88.2-.73.2-1.13c0-.61-.15-1.16-.46-1.64-.31-.48-.75-.72-1.32-.72-.39,0-.72.11-1,.34-.27.23-.48.53-.62.89-.14.37-.2.74-.2,1.13M134.5,57.61v5.75c0,.45-.06.81-.19,1.1-.13.28-.43.42-.92.42-.31,0-.55-.08-.72-.25s-.3-.42-.38-.75c-.3.37-.63.64-.99.82s-.76.27-1.2.27c-.71,0-1.36-.19-1.94-.57s-1.03-.92-1.37-1.6c-.33-.69-.5-1.45-.5-2.31s.17-1.59.51-2.28.8-1.23,1.39-1.62,1.22-.59,1.9-.59c.43,0,.84.09,1.23.27s.71.44.96.79c.03-.28.15-.51.36-.69s.46-.27.74-.27c.49,0,.8.14.92.42.13.28.19.65.19,1.1h.01ZM125.79,57.46c0,.27-.09.53-.25.76-.17.23-.38.35-.63.35-.18,0-.46-.07-.85-.22-.38-.15-.7-.22-.98-.22-.32,0-.6.07-.85.2-.24.13-.45.31-.61.54s-.29.48-.36.75c-.08.27-.12.56-.12.87,0,.27.04.55.13.84s.21.54.38.77.37.41.62.54c.24.13.52.19.81.19.16,0,.33-.03.5-.08s.4-.14.69-.25.46-.17.53-.17c.27,0,.5.1.7.3s.29.44.29.72c0,.36-.16.66-.49.91-.33.24-.71.42-1.17.53-.45.11-.84.17-1.17.17-.8,0-1.52-.2-2.14-.61-.63-.4-1.11-.95-1.46-1.63s-.52-1.43-.52-2.25c0-.58.1-1.14.3-1.68s.48-1.02.85-1.44c.37-.42.81-.76,1.33-1,.51-.25,1.07-.37,1.66-.37.35,0,.75.05,1.2.14.45.1.83.25,1.14.47.32.22.48.5.48.84v.03h-.01ZM116.7,52.6c.21,0,.42.06.63.18s.37.28.49.48c.12.2.18.41.18.62,0,.37-.13.69-.38.95-.25.26-.56.39-.92.39s-.65-.14-.91-.41-.39-.58-.39-.94c0-.32.13-.62.4-.88.27-.26.57-.4.9-.4h0ZM115.55,63.59v-6.2c0-.39.1-.7.31-.94.21-.23.49-.35.83-.35.22,0,.42.05.59.16.18.11.31.26.41.45.1.19.15.42.15.67v6.2c0,.25-.05.47-.15.67s-.24.35-.41.46c-.18.11-.38.16-.59.16-.34,0-.62-.12-.83-.35-.21-.24-.31-.55-.31-.94h0ZM106.64,63.59v-6.2c0-.39.11-.7.32-.94.21-.23.49-.35.83-.35.3,0,.54.07.72.22.19.15.3.35.34.63.23-.32.52-.55.88-.71.36-.15.81-.23,1.34-.23.6,0,1.14.12,1.62.37s.85.61,1.13,1.08c.27.47.41,1.03.41,1.67v4.46c0,.25-.05.48-.15.68s-.23.35-.41.46-.37.16-.59.16c-.34,0-.62-.12-.83-.35-.21-.24-.32-.55-.32-.94v-4.05c0-.53-.14-.92-.42-1.19s-.64-.4-1.09-.4-.82.15-1.08.45-.39.69-.39,1.15v4.05c0,.25-.05.47-.15.67-.1.2-.23.35-.41.46s-.37.16-.59.16c-.34,0-.62-.12-.83-.35-.21-.24-.32-.55-.32-.94v-.02h0ZM105.79,57.46c0,.27-.09.53-.25.76-.17.23-.38.35-.63.35-.18,0-.46-.07-.85-.22-.38-.15-.7-.22-.98-.22-.32,0-.6.07-.85.2-.24.13-.45.31-.61.54s-.29.48-.36.75c-.08.27-.12.56-.12.87,0,.27.04.55.13.84s.21.54.38.77.37.41.62.54c.24.13.52.19.81.19.16,0,.33-.03.5-.08s.4-.14.69-.25.46-.17.53-.17c.27,0,.5.1.7.3s.29.44.29.72c0,.36-.16.66-.49.91-.33.24-.71.42-1.17.53-.45.11-.84.17-1.16.17-.8,0-1.52-.2-2.14-.61-.63-.4-1.11-.95-1.46-1.63s-.52-1.43-.52-2.25c0-.58.1-1.14.3-1.68s.48-1.02.85-1.44c.37-.42.81-.76,1.33-1,.51-.25,1.07-.37,1.66-.37.35,0,.75.05,1.2.14.44.1.83.25,1.14.47.32.22.48.5.48.84,0,0-.02.03-.02.03ZM92.8,53.23l1.88-.78c.27-.1.47-.16.61-.16.23,0,.44.11.61.33s.26.44.26.68c0,.47-.22.79-.66.94l-1.8.73c-.15.05-.25.09-.3.11s-.09.03-.12.04h-.21c-.23,0-.43-.12-.6-.37s-.25-.52-.25-.82c0-.12.04-.24.13-.35.08-.12.19-.21.32-.28l.13-.07h0ZM92.35,59.72h3.66c-.03-.33-.13-.64-.29-.91s-.37-.49-.63-.64c-.26-.15-.56-.23-.91-.23s-.63.08-.89.24-.47.37-.63.64-.26.57-.3.9h-.01ZM97.31,61.27h-4.91c.07.55.31.97.71,1.24.41.28.89.42,1.46.42.35,0,.63-.05.85-.15s.53-.25.92-.46.67-.32.84-.32c.15,0,.31.05.46.15.15.1.27.22.35.38.09.15.13.31.13.49,0,.32-.19.64-.58.94-.38.31-.87.55-1.47.74-.59.19-1.17.28-1.72.28-.63,0-1.22-.11-1.75-.33s-.99-.54-1.37-.94c-.39-.41-.68-.89-.89-1.44s-.31-1.14-.31-1.77c0-.58.1-1.14.3-1.68s.49-1.03.86-1.45.81-.75,1.32-.99c.51-.25,1.06-.37,1.65-.37s1.16.13,1.68.38c.51.25.95.58,1.31.99s.65.87.84,1.36c.2.5.3.99.3,1.49,0,.69-.34,1.04-1.01,1.04h.03ZM84.8,63.62v-8.11h-1.74c-.36,0-.63-.11-.82-.32s-.28-.47-.28-.78c0-.2.04-.38.13-.55s.22-.31.39-.41.36-.16.57-.16h5.88c.33,0,.6.11.8.34.2.22.3.49.3.79s-.09.57-.27.78-.46.32-.82.32h-1.74v8.11c0,.41-.11.72-.33.94s-.51.33-.87.33-.65-.11-.87-.33-.33-.53-.33-.94h0ZM71.27,60.49c0,.39.07.77.21,1.13s.34.65.62.88c.27.23.61.34.99.34s.7-.11.97-.34c.27-.23.47-.52.61-.88s.2-.73.2-1.13c0-.61-.15-1.16-.46-1.64s-.75-.72-1.32-.72c-.39,0-.72.11-1,.34-.27.23-.48.53-.62.89-.14.37-.2.74-.2,1.13ZM77.17,57.61v5.75c0,.45-.06.81-.19,1.1-.13.28-.43.42-.92.42-.31,0-.55-.08-.72-.25s-.3-.42-.38-.75c-.3.37-.63.64-.99.82s-.76.27-1.2.27c-.71,0-1.36-.19-1.94-.57s-1.03-.92-1.37-1.6c-.33-.69-.5-1.45-.5-2.31s.17-1.59.51-2.28.8-1.23,1.39-1.62,1.22-.59,1.9-.59c.43,0,.84.09,1.23.27s.71.44.96.79c.03-.28.15-.51.36-.69s.46-.27.74-.27c.49,0,.8.14.92.42.13.28.19.65.19,1.1h.01,0ZM66.82,52.6c.21,0,.42.06.63.18s.37.28.49.48c.12.2.18.41.18.62,0,.37-.12.69-.38.95-.25.26-.56.39-.92.39s-.65-.14-.91-.41-.39-.58-.39-.94c0-.32.13-.62.4-.88.27-.26.57-.4.9-.4h0ZM65.68,63.59v-6.2c0-.39.1-.7.31-.94.21-.23.49-.35.83-.35.22,0,.42.05.59.16.18.11.31.26.41.45.1.19.15.42.15.67v6.2c0,.25-.05.47-.15.67s-.24.35-.41.46c-.18.11-.38.16-.59.16-.34,0-.62-.12-.83-.35-.21-.24-.31-.55-.31-.94h0ZM64.86,57.46c0,.27-.09.53-.25.76-.17.23-.38.35-.63.35-.18,0-.46-.07-.85-.22-.38-.15-.7-.22-.98-.22-.32,0-.6.07-.85.2-.24.13-.45.31-.61.54s-.29.48-.36.75c-.08.27-.12.56-.12.87,0,.27.04.55.13.84s.21.54.38.77c.17.23.37.41.62.54.24.13.52.19.81.19.16,0,.33-.03.5-.08s.4-.14.69-.25.46-.17.53-.17c.27,0,.5.1.7.3s.29.44.29.72c0,.36-.16.66-.49.91-.33.24-.71.42-1.17.53-.45.11-.84.17-1.17.17-.8,0-1.52-.2-2.14-.61-.63-.4-1.11-.95-1.46-1.63s-.52-1.43-.52-2.25c0-.58.1-1.14.3-1.68s.48-1.02.85-1.44.81-.76,1.33-1c.51-.25,1.07-.37,1.66-.37.35,0,.75.05,1.2.14.45.1.83.25,1.14.47.32.22.48.5.48.84v.03h-.01ZM49.31,63.59v-6.2c0-.39.11-.7.32-.94.21-.23.49-.35.83-.35.3,0,.54.07.72.22.19.15.3.35.34.63.23-.32.52-.55.88-.71.36-.15.81-.23,1.34-.23.6,0,1.14.12,1.62.37s.85.61,1.13,1.08c.27.47.4,1.03.4,1.67v4.46c0,.25-.05.48-.15.68s-.23.35-.41.46-.37.16-.59.16c-.34,0-.62-.12-.83-.35-.21-.24-.32-.55-.32-.94v-4.05c0-.53-.14-.92-.42-1.19s-.64-.4-1.09-.4-.82.15-1.08.45c-.26.3-.39.69-.39,1.15v4.05c0,.25-.05.47-.15.67s-.23.35-.41.46-.37.16-.59.16c-.34,0-.62-.12-.83-.35-.21-.24-.32-.55-.32-.94v-.02h0ZM42.63,53.14l1.69-.7,1.7.7c.49.21.73.53.73.97,0,.27-.1.51-.3.72-.2.21-.42.32-.68.32-.11,0-.38-.1-.83-.29l-.63-.27-.62.27c-.44.19-.72.29-.83.29-.26,0-.48-.11-.68-.32s-.3-.45-.3-.72c0-.25.06-.45.19-.61.13-.15.31-.28.55-.37h.01ZM42.48,59.72h3.66c-.04-.33-.13-.64-.29-.91s-.37-.49-.63-.64c-.26-.15-.57-.23-.91-.23s-.63.08-.9.24c-.26.16-.47.37-.63.64s-.26.57-.3.9ZM47.43,61.27h-4.9c.07.55.31.97.71,1.24.4.28.89.42,1.46.42.35,0,.63-.05.86-.15.22-.1.53-.25.92-.46s.67-.32.83-.32.31.05.46.15.27.22.35.38c.09.15.13.31.13.49,0,.32-.19.64-.58.94-.39.31-.87.55-1.47.74-.59.19-1.17.28-1.72.28-.63,0-1.22-.11-1.75-.33s-.99-.54-1.38-.94c-.38-.41-.68-.89-.89-1.44s-.31-1.14-.31-1.77c0-.58.1-1.14.3-1.68s.49-1.03.86-1.45.81-.75,1.33-.99c.51-.25,1.06-.37,1.65-.37s1.16.13,1.68.38.95.58,1.32.99c.36.41.64.87.84,1.36.2.5.3.99.3,1.49,0,.69-.34,1.04-1.01,1.04,0,0,0,0,.01,0ZM36.45,63.59v-5.36h-.51c-.31,0-.56-.09-.74-.27s-.27-.43-.27-.75c0-.29.1-.53.29-.72s.43-.29.72-.29h.51v-1.39c0-.39.11-.7.32-.94.21-.24.49-.35.83-.35.22,0,.42.05.6.16s.31.26.41.46c.1.19.14.42.14.67v1.39h.66c.32,0,.58.08.79.25s.31.42.31.76-.1.61-.31.77c-.21.17-.47.25-.79.25h-.66v5.36c0,.25-.05.47-.15.67s-.23.35-.41.46-.37.16-.59.16c-.34,0-.62-.12-.83-.35-.21-.24-.32-.55-.32-.94ZM34.82,57.68c0,.27-.09.5-.27.71s-.4.31-.67.31c-.12,0-.35-.07-.68-.23-.34-.15-.59-.26-.78-.34-.18-.07-.39-.11-.61-.11s-.4.05-.55.16-.23.27-.23.48c0,.23.23.45.69.65s.94.41,1.45.62.95.5,1.31.86c.37.36.55.84.55,1.45,0,.51-.14.98-.41,1.4s-.66.75-1.16.98c-.5.24-1.07.35-1.71.35-.45,0-.93-.08-1.43-.23-.5-.16-.92-.38-1.27-.66-.34-.28-.52-.58-.52-.91,0-.13.04-.28.12-.44s.2-.3.35-.42c.16-.12.33-.18.52-.18.21,0,.39.03.55.1.15.06.35.17.59.3s.45.23.64.3.39.1.61.1c.34,0,.57-.05.71-.16.13-.11.2-.28.2-.51s-.23-.43-.68-.62-.94-.4-1.46-.62-.97-.51-1.32-.87c-.36-.36-.54-.84-.54-1.44,0-.53.13-1,.4-1.41s.64-.73,1.11-.95c.47-.23,1.01-.34,1.62-.34.42,0,.85.06,1.29.19.44.12.81.32,1.12.58.31.26.46.56.46.92,0,0,0-.02,0-.02ZM26.55,52.6c.21,0,.42.06.63.18s.37.28.49.48c.12.2.18.41.18.62,0,.37-.12.69-.38.95-.25.26-.56.39-.92.39s-.65-.14-.91-.41-.39-.58-.39-.94c0-.32.13-.62.4-.88.27-.26.57-.4.9-.4h0ZM25.4,63.59v-6.2c0-.39.1-.7.31-.94s.49-.35.83-.35c.22,0,.42.05.59.16.18.11.31.26.41.45.1.19.15.42.15.67v6.2c0,.25-.05.47-.15.67s-.24.35-.41.46c-.18.11-.38.16-.59.16-.34,0-.62-.12-.83-.35-.21-.24-.31-.55-.31-.94h0ZM24.36,57.68c0,.27-.09.5-.27.71s-.4.31-.67.31c-.12,0-.35-.07-.68-.23-.34-.15-.59-.26-.78-.34-.18-.07-.39-.11-.61-.11s-.4.05-.55.16-.23.27-.23.48c0,.23.23.45.69.65.46.2.94.41,1.45.62s.95.5,1.31.86c.37.36.55.84.55,1.45,0,.51-.14.98-.41,1.4s-.66.75-1.16.98c-.5.24-1.07.35-1.71.35-.45,0-.93-.08-1.43-.23-.5-.16-.92-.38-1.27-.66-.34-.28-.52-.58-.52-.91,0-.13.04-.28.12-.44s.2-.3.35-.42c.16-.12.33-.18.52-.18.21,0,.39.03.55.1.15.06.35.17.59.3s.45.23.64.3.39.1.61.1c.34,0,.57-.05.71-.16.13-.11.2-.28.2-.51s-.23-.43-.68-.62-.94-.4-1.46-.62-.97-.51-1.32-.87c-.36-.36-.54-.84-.54-1.44,0-.53.13-1,.4-1.41s.64-.73,1.11-.95c.47-.23,1.01-.34,1.62-.34.42,0,.85.06,1.29.19.44.12.81.32,1.12.58.31.26.46.56.46.92,0,0,0-.02,0-.02ZM17.5,57.68c0,.27-.09.5-.27.71s-.4.31-.67.31c-.12,0-.35-.07-.68-.23-.34-.15-.59-.26-.78-.34-.18-.07-.39-.11-.61-.11s-.4.05-.55.16-.23.27-.23.48c0,.23.23.45.69.65s.94.41,1.45.62c.51.21.95.5,1.31.86.37.36.55.84.55,1.45,0,.51-.14.98-.41,1.4s-.66.75-1.16.98c-.5.24-1.07.35-1.71.35-.45,0-.93-.08-1.43-.23-.5-.16-.92-.38-1.27-.66-.34-.28-.52-.58-.52-.91,0-.13.04-.28.12-.44s.2-.3.35-.42c.16-.12.33-.18.52-.18.21,0,.39.03.55.1.15.06.35.17.59.3s.45.23.64.3.39.1.61.1c.34,0,.57-.05.71-.16.13-.11.2-.28.2-.51s-.23-.43-.68-.62-.94-.4-1.46-.62-.97-.51-1.32-.87c-.36-.36-.54-.84-.54-1.44,0-.53.13-1,.4-1.41.27-.41.64-.73,1.11-.95.47-.23,1.01-.34,1.62-.34.42,0,.85.06,1.29.19.44.12.81.32,1.12.58.31.26.46.56.46.92,0,0,0-.02,0-.02ZM5.99,55.6l-1.51,4.69h3.04l-1.49-4.69h-.04ZM1.08,63.22l3.22-8.78c.15-.4.38-.73.68-.97.3-.25.64-.37,1.03-.37s.76.12,1.06.37c.29.24.51.57.65.98l3.14,8.78c.08.23.13.43.13.59,0,.31-.11.57-.33.77s-.47.3-.78.3c-.59,0-.98-.28-1.17-.83l-.47-1.52H3.8l-.49,1.51c-.18.56-.56.84-1.15.84-.33,0-.61-.11-.84-.33-.23-.22-.35-.49-.35-.81,0-.15.04-.33.11-.53h0Z" fill="#693b9e"/>
  <g>
    <path d="M252.41,6.94c-.66-.66-1.57-1.07-2.57-1.07s-1.91.41-2.57,1.07-1.07,1.57-1.07,2.57.41,1.91,1.07,2.57,1.57,1.07,2.57,1.07,1.91-.41,2.57-1.07,1.07-1.57,1.07-2.57-.41-1.91-1.07-2.57M248.92,9.09h.74c.48,0,.77-.02.89-.06s.21-.11.28-.21.1-.22.1-.37c0-.17-.04-.3-.13-.4-.09-.1-.21-.17-.37-.19-.08,0-.32-.02-.73-.02h-.78v1.26h0ZM247.92,11.95v-4.95h2.1c.53,0,.91.04,1.15.13s.43.25.57.47c.14.23.22.49.22.78,0,.37-.11.68-.32.92-.22.24-.54.39-.97.46.21.13.39.26.53.41s.33.42.56.8l.6.96h-1.19l-.71-1.08c-.26-.38-.43-.63-.53-.73-.09-.1-.19-.17-.3-.2-.11-.04-.27-.06-.5-.06h-.2v2.07h-1v.02h0ZM249.84,5.06c1.23,0,2.34.5,3.15,1.3.81.81,1.3,1.92,1.3,3.15s-.5,2.34-1.3,3.15c-.81.81-1.92,1.3-3.15,1.3s-2.34-.5-3.15-1.3c-.81-.81-1.3-1.92-1.3-3.15s.5-2.34,1.3-3.15c.81-.81,1.92-1.3,3.15-1.3Z" fill="#f47f16"/>
    <path d="M237.88,27.78l6.84,7.59c1.41,1.57,2.11,2.9,2.11,3.98,0,1.33-.5,2.43-1.51,3.3-.83.72-1.8,1.08-2.88,1.08-.99,0-1.95-.38-2.86-1.17-.31-.27-.76-.8-1.36-1.53l-5.47-6.7-5.55,6.67c-.77.93-1.38,1.56-1.86,1.9-.76.55-1.56.83-2.42.83-1.12,0-2.1-.37-2.93-1.11-1-.89-1.51-2-1.51-3.33,0-1.16.74-2.5,2.2-4.06l6.95-7.45-5.6-6.07c-1.45-1.57-2.2-2.9-2.2-4.04,0-1.35.52-2.46,1.54-3.34.84-.72,1.8-1.08,2.9-1.08s2.02.41,2.93,1.22c.29.26.73.79,1.37,1.6l4.17,5.25,4.22-5.15c.77-.94,1.38-1.58,1.86-1.92.76-.55,1.57-.83,2.45-.83,1.12,0,2.11.37,2.96,1.14.99.89,1.48,1.99,1.48,3.29,0,.82-.3,1.66-.88,2.54-.21.32-.68.85-1.4,1.59l-5.56,5.8h.01Z" fill="#f47f16"/>
    <path d="M204.87,37.94v-18.9c0-1.61.18-2.82.56-3.59.31-.63.83-1.14,1.51-1.53.68-.4,1.41-.6,2.19-.6s1.49.2,2.19.6,1.2.91,1.51,1.53c.38.76.56,1.96.56,3.59v18.9c0,1.63-.18,2.84-.56,3.59-.31.6-.81,1.12-1.51,1.52-.7.41-1.43.61-2.19.61s-1.48-.2-2.17-.6-1.21-.91-1.53-1.53c-.38-.75-.56-1.96-.56-3.59Z" fill="#f47f16"/>
    <path d="M209.3.55c1.42,0,2.62.55,3.61,1.65.86.95,1.28,2.06,1.28,3.33,0,1.48-.55,2.71-1.65,3.7-.95.86-2.06,1.28-3.33,1.28-1.48,0-2.71-.55-3.7-1.65-.86-.95-1.28-2.08-1.28-3.39,0-1.42.56-2.64,1.65-3.64.93-.85,2.07-1.28,3.42-1.28Z" fill="#f47f16"/>
    <path d="M187.15,12.38v7.75h7.06c1.5,0,2.59.19,3.3.54.58.29,1.07.75,1.44,1.4.37.64.55,1.33.55,2.05s-.19,1.41-.55,2.05c-.37.65-.86,1.11-1.44,1.4-.71.35-1.81.54-3.3.54h-7.06v9.79c0,1.69-.19,2.94-.59,3.73-.33.64-.86,1.18-1.58,1.59-.73.42-1.49.62-2.28.62s-1.55-.2-2.27-.62-1.26-.95-1.59-1.59c-.41-.79-.59-2.04-.59-3.73V10.89c0-1.21.04-2.07.12-2.56.2-1.21.82-2.23,1.87-3.02.82-.62,1.96-.91,3.4-.91h12.01c1.52,0,2.63.19,3.34.54.58.29,1.07.75,1.44,1.4.37.64.55,1.33.55,2.05s-.19,1.41-.55,2.05c-.37.65-.86,1.12-1.44,1.4-.73.36-1.84.54-3.34.54h-8.5,0Z" fill="#f47f16"/>
  </g>
</svg>